<svg xmlns="http://www.w3.org/2000/svg" xml:space="preserve" width="512px" height="512px" style="shape-rendering:geometricPrecision; text-rendering:geometricPrecision; image-rendering:optimizeQuality; fill-rule:evenodd; clip-rule:evenodd" viewBox="0 0 512 512" xmlns:xlink="http://www.w3.org/1999/xlink">
<defs>
<style type="text/css">
   
    .fil0 {fill:url(#id0)}
   
  </style>
<linearGradient id="id0" gradientUnits="userSpaceOnUse" x1="0.101575" y1="256" x2="526.963" y2="256">
<stop offset="0" style="stop-color: rgb(69, 205, 232);" id="id_102"></stop>
<stop offset="1" style="stop-color: rgb(69, 232, 145);" id="id_103"></stop>
</linearGradient>
</defs>
<g id="Layer_x0020_1">
<metadata id="CorelCorpID_0Corel-Layer"></metadata>
<path class="fil0" d="M327.1 496.499l-290.999 0c-19.5001,0 -36.0001,-16.9004 -36.0001,-37.0005l0 -407.998c0,-19.9005 16.0997,-36.0001 36.0001,-36.0001l290.999 0c19.9005,0 36.0001,16.0997 36.0001,36.0001l0 205.098c23.139,-23.139 50.0647,-50.9104 73.0987,-73.0975 10.7847,-10.389 17.9209,-20.7993 36.3993,-20.7993 31.2851,0 54.3651,39.0521 27.6001,66.7006l-8.81814 9.71696 -128.279 128.278 0 92.1026c-0.00118111,20.0989 -16.5012,36.9993 -36.0013,36.9993zm-9.99924 -54.9994l-270.999 0c-9.23271,0 -9.23271,-14.0008 0,-14.0008l186.855 0c2.50867,-7.9016 17.3693,-57.7667 19.9961,-60.749 8.47089,-9.61775 95.4948,-94.5771 96.1468,-96.1503l0.00118111 -219.099c0,-12.1004 -9.90003,-22.0005 -22.0005,-22.0005l-290.999 0c-12.1004,0 -22.0005,9.90003 -22.0005,22.0005l0 407.999c0,12.4996 10.0996,22.9997 22.0005,22.9997l290.999 0c11.8996,0 22.0005,-10.5 22.0005,-22.9997l0 -78.1018 -41.9942 41.8218c-2.14607,1.38544 -11.9162,3.51733 -14.8288,4.27915l24.8233 0c9.23271,0 9.23152,14.0008 0,14.0008zm-136 -71.001l-134.999 0c-9.23271,0 -9.23271,-14.0008 0,-14.0008l134.999 0.00118111c9.23152,0 9.23389,13.9996 0,13.9996zm82.9987 -71.999l-217.998 0c-9.23271,0 -9.23271,-14.0008 0,-14.0008l217.998 0c9.23271,0 9.23271,14.0008 0,14.0008zm53.001 -71.999l-270.999 0c-9.23271,0 -9.23271,-14.0008 0,-14.0008l270.999 0c9.23271,0 9.23152,14.0008 0,14.0008zm0 -70.9998l-270.999 0c-9.23271,0 -9.23271,-14.0008 0,-14.0008l270.999 0c9.23271,0 9.23152,14.0008 0,14.0008zm0 -72.0002l-270.999 0c-9.23271,0 -9.23271,-14.0008 0,-14.0008l270.999 0c9.23271,0 9.23152,14.0008 0,14.0008zm124.052 114.846l-173.206 173.207 35.2088 35.9895 173.989 -173.988 -35.9918 -35.2088zm9.94727 -9.94609l35.7001 34.9005c5.93506,-6.69923 11.1,-10.8083 11.1,-21.3993 0,-19.9134 -25.682,-35.2537 -42.9001,-17.6008l-3.90001 4.09962zm-189.838 196.34l-12.6603 39.7584 41.0576 -10.7292 -28.3973 -29.0292z" id="id_101"></path>
</g>
</svg>